<svg width="16" height="16" viewBox="0 0 16 16" fill="none" xmlns="http://www.w3.org/2000/svg">
<path fill-rule="evenodd" clip-rule="evenodd" d="M6.7748 1.2C6.48486 1.2 6.2498 1.43505 6.2498 1.725V2.17212H9.21647V1.725C9.21647 1.43505 8.98142 1.2 8.69147 1.2H6.7748ZM5.0498 1.725V2.17212H0.65C0.291015 2.17212 0 2.46313 0 2.82212C0 3.1811 0.291015 3.47212 0.65 3.47212H1.7168V13.5998C1.7168 14.8517 2.73162 15.8665 3.98346 15.8665H11.3446C12.5964 15.8665 13.6112 14.8517 13.6112 13.5998V3.47212H14.8167C15.1757 3.47212 15.4667 3.1811 15.4667 2.82212C15.4667 2.46313 15.1757 2.17212 14.8167 2.17212H10.4165V1.725C10.4165 0.772309 9.64416 0 8.69147 0H6.7748C5.82211 0 5.0498 0.772308 5.0498 1.725ZM12.4112 3.47212H2.9168V13.5998C2.9168 14.1889 3.39436 14.6665 3.98346 14.6665H11.3446C11.9337 14.6665 12.4112 14.1889 12.4112 13.5998V3.47212ZM5.83281 6.2665C5.83281 5.93513 5.56418 5.6665 5.23281 5.6665C4.90144 5.6665 4.63281 5.93513 4.63281 6.2665V12.2386C4.63281 12.57 4.90144 12.8386 5.23281 12.8386C5.56418 12.8386 5.83281 12.57 5.83281 12.2386V6.2665ZM7.73281 5.6665C8.06418 5.6665 8.33281 5.93513 8.33281 6.2665V12.2386C8.33281 12.57 8.06418 12.8386 7.73281 12.8386C7.40144 12.8386 7.13281 12.57 7.13281 12.2386V6.2665C7.13281 5.93513 7.40144 5.6665 7.73281 5.6665ZM10.8328 6.2665C10.8328 5.93513 10.5642 5.6665 10.2328 5.6665C9.90144 5.6665 9.63281 5.93513 9.63281 6.2665V12.2386C9.63281 12.57 9.90144 12.8386 10.2328 12.8386C10.5642 12.8386 10.8328 12.57 10.8328 12.2386V6.2665Z" fill="#555555"/>
</svg>
