<svg width="24" height="24" viewBox="0 0 24 24" fill="none" xmlns="http://www.w3.org/2000/svg">
<path d="M19.4851 20.154L13.2231 13.892C12.7231 14.318 12.1481 14.6477 11.4981 14.881C10.8481 15.1144 10.1948 15.231 9.53811 15.231C7.93677 15.231 6.58144 14.6767 5.47211 13.568C4.36277 12.4587 3.80811 11.1037 3.80811 9.50304C3.80811 7.90238 4.36211 6.54671 5.47011 5.43604C6.57877 4.32471 7.93344 3.76904 9.53411 3.76904C11.1354 3.76904 12.4914 4.32371 13.6021 5.43304C14.7128 6.54238 15.2681 7.89804 15.2681 9.50004C15.2681 10.1947 15.1451 10.867 14.8991 11.517C14.6524 12.167 14.3291 12.723 13.9291 13.185L20.1911 19.446L19.4851 20.154ZM9.53811 14.23C10.8648 14.23 11.9851 13.7734 12.8991 12.86C13.8124 11.9467 14.2691 10.8264 14.2691 9.49904C14.2691 8.17238 13.8124 7.05238 12.8991 6.13904C11.9858 5.22571 10.8658 4.76904 9.5391 4.76904C8.21244 4.76904 7.09211 5.22571 6.17811 6.13904C5.26477 7.05238 4.80811 8.17238 4.80811 9.49904C4.80811 10.8257 5.26477 11.9457 6.17811 12.859C7.09144 13.7724 8.21144 14.23 9.53811 14.23Z" fill="white"/>
</svg>
