<svg width="24" height="24" viewBox="0 0 24 24" fill="none" xmlns="http://www.w3.org/2000/svg">
<g id="ic / add-24">
<path id="Union" fill-rule="evenodd" clip-rule="evenodd" d="M2.29961 12.2451C2.29961 7.34526 6.27177 3.3731 11.1716 3.3731C12.4839 3.3731 13.7281 3.65763 14.8472 4.16779C15.1487 4.30524 15.5046 4.17223 15.642 3.87071C15.7795 3.56919 15.6465 3.21334 15.345 3.07589C14.0727 2.49592 12.659 2.1731 11.1716 2.1731C5.60903 2.1731 1.09961 6.68252 1.09961 12.2451C1.09961 17.8076 5.60903 22.317 11.1716 22.317C16.7341 22.317 21.2436 17.8076 21.2436 12.2451C21.2436 11.7968 21.2142 11.3551 21.1573 10.9218C21.1142 10.5932 20.8129 10.3619 20.4843 10.405C20.1558 10.4482 19.9244 10.7495 19.9676 11.078C20.0177 11.4597 20.0436 11.8492 20.0436 12.2451C20.0436 17.1449 16.0714 21.117 11.1716 21.117C6.27177 21.117 2.29961 17.1449 2.29961 12.2451ZM14.6939 9.76565C14.6939 9.22617 14.2566 8.78882 13.7171 8.78882C13.1776 8.78882 12.7402 9.22617 12.7402 9.76565C12.7402 10.3051 13.1776 10.7425 13.7171 10.7425C14.2566 10.7425 14.6939 10.3051 14.6939 9.76565ZM8.62722 8.78882C9.16671 8.78882 9.60406 9.22617 9.60406 9.76565C9.60406 10.3051 9.16671 10.7425 8.62722 10.7425C8.08774 10.7425 7.65039 10.3051 7.65039 9.76565C7.65039 9.22617 8.08774 8.78882 8.62722 8.78882ZM8.39812 13.3222C8.34412 12.9952 8.0353 12.774 7.70836 12.828C7.38142 12.882 7.16016 13.1908 7.21417 13.5178C7.38511 14.5525 7.84031 15.3481 8.53682 15.8943C9.22237 16.432 10.0878 16.6861 11.0144 16.7505L11.0352 16.752H11.0561C12.0512 16.752 12.941 16.5029 13.6292 15.9385C14.3213 15.371 14.7416 14.5404 14.8991 13.5107C14.9492 13.1831 14.7242 12.877 14.3967 12.8269C14.0691 12.7768 13.7629 13.0017 13.7128 13.3293C13.5895 14.1358 13.2822 14.6712 12.8683 15.0106C12.4542 15.3502 11.8661 15.5485 11.0768 15.5519C10.3161 15.4961 9.71352 15.2921 9.27734 14.9501C8.84813 14.6135 8.52696 14.1021 8.39812 13.3222ZM18.5957 3.1C18.5957 2.76863 18.8643 2.5 19.1957 2.5C19.5271 2.5 19.7957 2.76863 19.7957 3.1V5.3H21.9957C22.3271 5.3 22.5957 5.56863 22.5957 5.9C22.5957 6.23137 22.3271 6.5 21.9957 6.5H19.7957V8.9C19.7957 9.23137 19.5271 9.5 19.1957 9.5C18.8643 9.5 18.5957 9.23137 18.5957 8.9V6.5H16.1957C15.8643 6.5 15.5957 6.23137 15.5957 5.9C15.5957 5.56863 15.8643 5.3 16.1957 5.3H18.5957V3.1Z" fill="#181818"/>
</g>
</svg>
